<svg id="Layer_1" data-name="Layer 1" xmlns="http://www.w3.org/2000/svg" width="55" height="55" viewBox="0 0 55 55">
  <title>lock-icon</title>
  <path d="M44.05064,26.35243a2.79478,2.79478,0,0,0-2.05238-.845h-.96643v-5.7986a13.01546,13.01546,0,0,0-3.98477-9.54056A13.0176,13.0176,0,0,0,27.5042,6.18119a13.01468,13.01468,0,0,0-9.54289,3.98708,13.0155,13.0155,0,0,0-3.98476,9.54056v5.79855h-.96644a2.88525,2.88525,0,0,0-2.89926,2.87119q-.00006.014,0,.02809V45.8a2.886,2.886,0,0,0,2.87267,2.89927q.01329.00006.02659,0H41.99826a2.886,2.886,0,0,0,2.89927-2.87267q.00006-.01331,0-.0266V28.40666A2.79638,2.79638,0,0,0,44.05064,26.35243Zm-8.8169-.845H19.7728v-5.7986a7.73047,7.73047,0,0,1,15.46094,0Z" style="fill: #373737"/>
</svg>
